<?xml version="1.0" encoding="utf-8"?>
<!-- Generator: Adobe Illustrator 27.8.1, SVG Export Plug-In . SVG Version: 6.00 Build 0)  -->
<svg version="1.1" id="Layer_1" xmlns="http://www.w3.org/2000/svg" xmlns:xlink="http://www.w3.org/1999/xlink" x="0px" y="0px"
	 viewBox="0 0 3000 3000" style="enable-background:new 0 0 3000 3000;" xml:space="preserve">
<style type="text/css">
	.st0{fill:#FFFFFF;}
</style>
<g>
	<path class="st0" d="M499.4,1772.7v-603.9c0-30.4,4.4-50.3,13.2-59.7c8.8-9.4,30.1-14,64.1-14c30.4,0,50.3,4.7,59.7,14
		c9.4,9.4,14,29.3,14,59.7v165h163.3v-184.3c0-46.8-2.9-84.8-8.8-114.1c-5.9-29.2-17.6-51.8-35.1-67.6
		c-17.6-15.8-41.9-26.6-72.9-32.5c-31-5.8-71.1-8.8-120.3-8.8c-51.5,0-93.6,2.4-126.4,7c-32.8,4.7-58.2,14.9-76.4,30.7
		c-18.2,15.8-30.7,38.4-37.7,67.6c-7,29.3-10.5,68.5-10.5,117.6v633.9h174C499.5,1780,499.4,1776.4,499.4,1772.7z"/>
	<path class="st0" d="M650.4,1500.6v272.1c0,3.9-0.3,7.2-0.5,10.7h163.7v-282.8H650.4z"/>
	<path class="st0" d="M1429.8,1031.8c-7-29.2-19.6-51.8-37.7-67.6c-18.2-15.8-43.6-26-76.4-30.7c-32.8-4.7-74.9-7-126.4-7
		c-51.5,0-93.6,2.4-126.4,7c-32.8,4.7-58.5,14.9-77.2,30.7c-18.7,15.8-31.3,38.4-37.7,67.6c-6.4,29.3-9.7,68.5-9.7,117.6v633.9h174
		c-0.1-3.4-0.2-7-0.2-10.7v-603.9c0-29.2,4.7-48.9,14-58.8c9.3-9.9,30.4-14.9,63.2-14.9c32.8,0,53.8,4.7,63.2,14
		c9.3,9.4,14,29.3,14,59.7v603.9c0,3.9-0.3,7.2-0.5,10.7h174.2v-633.9C1440.3,1100.3,1436.8,1061.1,1429.8,1031.8z"/>
	<polygon class="st0" points="1879.2,944.1 1791.4,1742.8 1784.4,1742.8 1703.7,944.1 1515.8,944.1 1616.7,1783.4 1951.8,1783.4 
		2065.3,944.1 	"/>
	<rect x="2158.3" y="944.1" class="st0" width="177.3" height="839.3"/>
	<rect x="2158.3" y="608.8" class="st0" width="177.3" height="182.6"/>
	<rect x="2495.4" y="608.8" class="st0" width="179.1" height="1174.6"/>
	<g>
		<path class="st0" d="M326.5,2078.7c0-11.5,0.7-21.1,2-28.8c1.3-7.7,3.8-13.9,7.4-18.5c3.6-4.6,8.4-7.9,14.5-9.8
			c6.1-2,14-2.9,23.9-2.9c11.2,0,20.1,1.8,26.8,5.4c6.7,3.6,11.9,8.7,15.5,15.2v-112.2h50.7v388.9h-46.8v-21.2
			c-4.6,8.5-10.4,14.6-17.5,18.2c-7.1,3.6-16.5,5.4-28.3,5.4c-9.8,0-17.9-0.9-24.1-2.7c-6.2-1.8-11.2-5-14.8-9.6
			c-3.6-4.6-6.1-10.7-7.4-18.5c-1.3-7.7-2-17.5-2-29.3V2078.7z M418.1,2079.2c-4.3-10.2-11.6-15.3-22.2-15.3
			c-8.5,0-14.1,1.6-16.7,4.9c-2.6,3.3-3.9,9.8-3.9,19.7V2249c0,9.8,1.3,16.4,3.9,19.7c2.6,3.3,8.2,4.9,16.7,4.9
			c10.5,0,17.9-5.1,22.2-15.2V2079.2z"/>
		<path class="st0" d="M803,1978.2h-49.7v-51.2H803V1978.2z M803,2315.9h-49.7v-294.9H803V2315.9z"/>
		<path class="st0" d="M1145.6,2348.9c11.2,0,18.9-1.9,23.1-5.7c4.3-3.8,6.4-11.2,6.4-22.4v-37.9c-3.6,6.6-8.8,11.6-15.5,15
			c-6.7,3.5-15.7,5.2-26.8,5.2c-9.8,0-17.9-1.1-24.1-3.2c-6.2-2.1-11.1-5.5-14.5-10.1c-3.5-4.6-5.8-10.7-7.1-18.4
			c-1.3-7.7-2-17.2-2-28.3v-164.4c0-11.5,0.7-21.1,2-28.8c1.3-7.7,3.8-13.9,7.4-18.5c3.6-4.6,8.5-7.9,14.8-9.8
			c6.2-2,14.3-2.9,24.1-2.9c11.8,0,21.2,1.9,28.3,5.7c7.1,3.8,12.9,9.9,17.5,18.5v-21.7h46.8v299.8c0,24-5.2,41.7-15.5,53.2
			c-10.3,11.5-28,17.2-52.9,17.2h-64.5v-42.3H1145.6z M1176.6,2079.2c-4.3-10.2-11.6-15.3-22.2-15.3c-8.5,0-14.1,1.6-16.7,4.9
			c-2.6,3.3-3.9,9.8-3.9,19.7v145.2c0,9.8,1.3,16.4,3.9,19.7c2.6,3.3,8.2,4.9,16.7,4.9c10.5,0,17.9-5.1,22.2-15.3V2079.2z"/>
		<path class="st0" d="M1561.5,1978.2h-49.7v-51.2h49.7V1978.2z M1561.5,2315.9h-49.7v-294.9h49.7V2315.9z"/>
		<path class="st0" d="M1933.2,2061.9h-34.5V2247c0,10.2,1.6,17.1,4.9,20.7c3.3,3.6,9.8,5.4,19.7,5.4h9.3v42.8h-12.8
			c-13.5,0-24.8-1.2-34-3.7c-9.2-2.5-16.6-6.2-22.2-11.3c-5.6-5.1-9.5-11.6-11.8-19.4c-2.3-7.9-3.4-17.2-3.4-28.1v-191.5h-18.2
			v-40.9h18.2v-89.6h50.2v89.6h34.5V2061.9z"/>
		<path class="st0" d="M2265.4,2320.9c-12.5,0-22.7-0.7-30.8-2c-8-1.3-14.4-3.9-19-7.9c-4.6-3.9-7.8-9.7-9.6-17.2
			c-1.8-7.5-2.7-17.6-2.7-30v-71.4c0-17.7,3.4-30.7,10.1-38.9c6.7-8.2,18.3-12.3,34.7-12.3h9.4c11.2,0,19,0.4,23.6,1.2
			c4.6,0.8,8,1.9,10.3,3.2v-61c0-10.8-1.4-17.8-4.2-20.9c-2.8-3.1-8.8-4.7-18-4.7c-8.9,0-14.4,1.8-16.7,5.4
			c-2.3,3.6-3.4,10.3-3.4,20.2v29.1h-45.8v-35c0-13.8,0.9-24.8,2.7-33c1.8-8.2,5.2-14.5,10.1-18.9c4.9-4.4,11.6-7.3,20.2-8.6
			c8.5-1.3,19.5-2,33-2c14.8,0,26.7,0.7,35.9,2c9.2,1.3,16.3,4.2,21.4,8.6c5.1,4.4,8.6,10.7,10.6,18.9c2,8.2,3,19.2,3,33v237.3
			c-5.9,1.6-14.9,2.9-27.1,3.7C2301,2320.4,2285.1,2320.9,2265.4,2320.9z M2269.4,2279.5c7.2,0,12.5-0.1,15.8-0.2
			c3.3-0.2,5.4-0.4,6.4-0.7V2182c-2.3-1.3-5.1-2.1-8.4-2.5c-3.3-0.3-7.7-0.5-13.3-0.5c-9.5,0-15.3,1.8-17.5,5.4
			c-2.1,3.6-3.2,10.5-3.2,20.7v46.3c0,5.6,0.2,10.2,0.5,13.8c0.3,3.6,1.1,6.5,2.5,8.6c1.3,2.1,3.4,3.6,6.2,4.4
			C2261.1,2279.1,2264.8,2279.5,2269.4,2279.5z"/>
		<path class="st0" d="M2673.5,2315.9h-50.2v-388.9h50.2V2315.9z"/>
	</g>
</g>
</svg>
